<?xml version="1.0" encoding="UTF-8"?>
<svg version="1.1" xmlns="http://www.w3.org/2000/svg" width="512" height="512">
<path d="M0 0 C1.4128418 1.6796875 1.4128418 1.6796875 2.69921875 3.875 C3.18165039 4.68654541 3.66408203 5.49809082 4.16113281 6.33422852 C4.66483398 7.21393311 5.16853516 8.0936377 5.6875 9 C6.21569336 9.90484131 6.74388672 10.80968262 7.28808594 11.74194336 C8.87746351 14.48441293 10.4433451 17.23884485 12 20 C12.43070801 20.76070801 12.86141602 21.52141602 13.30517578 22.30517578 C29.23972241 50.7017711 39.30614301 82.03243274 45 114 C45.26466064 115.39025391 45.26466064 115.39025391 45.53466797 116.80859375 C50.94570702 146.02498697 50.4645924 179.80235907 45 209 C44.79068848 210.1245459 44.58137695 211.2490918 44.36572266 212.40771484 C35.99250397 256.1463752 19.72352067 297.52364398 -9 332 C-9.4527832 332.55429687 -9.90556641 333.10859375 -10.37207031 333.6796875 C-21.82268899 347.68833727 -34.52513493 361.09757605 -49 372 C-49.68288086 372.52158691 -50.36576172 373.04317383 -51.06933594 373.58056641 C-60.71378757 380.93174533 -70.4263715 387.91903495 -81.00097656 393.86962891 C-83.16671193 395.0942692 -85.31289532 396.35007779 -87.4609375 397.60546875 C-129.01839804 421.545393 -179.04656797 435.99045377 -227.16796875 436.203125 C-228.20528641 436.20882507 -229.24260406 436.21452515 -230.31135559 436.22039795 C-232.49882001 436.2297852 -234.68629817 436.23635672 -236.8737793 436.24023438 C-240.13422122 436.24984299 -243.39400485 436.28088744 -246.65429688 436.3125 C-261.31633429 436.38648556 -275.51264277 435.23835155 -290 433 C-291.25546631 432.80647949 -292.51093262 432.61295898 -293.80444336 432.41357422 C-296.67518095 431.93198437 -299.52374938 431.3977092 -302.375 430.8125 C-303.39134521 430.60455811 -304.40769043 430.39661621 -305.45483398 430.18237305 C-343.53360177 422.03616899 -382.45831407 405.92664215 -412 380 C-412.66386719 379.41863281 -413.32773437 378.83726562 -414.01171875 378.23828125 C-420.20492734 372.46054997 -423.66728264 365.94167092 -424.23828125 357.4609375 C-424.56604201 345.40170375 -422.48748732 336.09373641 -414 327 C-401.82215292 315.85802788 -387.36972683 316.87353851 -371.76885986 317.09732056 C-304.31651799 317.92021989 -229.54166478 304.51447696 -174 264 C-173.39381836 263.56075195 -172.78763672 263.12150391 -172.16308594 262.66894531 C-146.22298379 243.80457757 -124.35227692 222.78165784 -108 195 C-107.47043701 194.10788818 -107.47043701 194.10788818 -106.93017578 193.19775391 C-83.60601332 153.39371408 -75.94993413 103.85050931 -74.4375 58.375 C-74.3950415 57.13403564 -74.35258301 55.89307129 -74.30883789 54.61450195 C-73.91395183 42.07587631 -73.89667753 29.54334804 -74 17 C-60.27692207 13.0928747 -46.48150597 9.49654919 -32.64501953 6.01367188 C-30.27222347 5.41463056 -27.90049455 4.81134833 -25.52978516 4.20410156 C-22.06636283 3.31706405 -18.60005582 2.44227808 -15.1328125 1.5703125 C-14.0724881 1.29647736 -13.0121637 1.02264221 -11.91970825 0.74050903 C-10.44569046 0.37419876 -10.44569046 0.37419876 -8.94189453 0.00048828 C-7.65099411 -0.32663651 -7.65099411 -0.32663651 -6.33401489 -0.66036987 C-3.84948829 -1.02190145 -2.33988107 -0.87774885 0 0 Z " fill="#FFFFFF" transform="translate(444,76)"/>
<path d="M0 0 C19.14 0 38.28 0 58 0 C59.959375 6.785625 61.91875 13.57125 63.9375 20.5625 C64.55488037 22.69146729 65.17226074 24.82043457 65.80834961 27.01391602 C66.29838416 28.7188065 66.78807188 30.42379673 67.27734375 32.12890625 C67.65832214 33.4354718 67.65832214 33.4354718 68.04699707 34.76843262 C69.40360222 39.51419426 70.43877104 44.09433549 71 49 C63.23121725 50.98271799 55.4602583 52.95656553 47.68635082 54.9190836 C44.07680217 55.8306089 40.46808456 56.74518678 36.86108398 57.66674805 C33.38103497 58.55575469 29.89904417 59.43673271 26.41555214 60.31214714 C25.08594547 60.64778583 23.75706786 60.98632623 22.42894554 61.32779121 C20.57070588 61.80502714 18.70960096 62.27106436 16.84838867 62.73657227 C15.25954109 63.13961327 15.25954109 63.13961327 13.63859558 63.55079651 C11 64 11 64 8 63 C6.95541503 55.08132795 5.91221299 47.16247549 4.87078857 39.24338722 C4.38719891 35.56646455 3.9031285 31.88960649 3.41796875 28.21289062 C2.95000541 24.6663602 2.48329268 21.11966727 2.01745605 17.5728569 C1.83928192 16.21798177 1.66065301 14.86316636 1.48156738 13.50841141 C1.23130861 11.61465181 0.98279932 9.72066127 0.734375 7.82666016 C0.59225586 6.74744293 0.45013672 5.66822571 0.30371094 4.55630493 C0 2 0 2 0 0 Z " fill="#FFFFFF" transform="translate(358,0)"/>
</svg>
